<svg width="719" height="582" viewBox="0 0 719 582" fill="none" xmlns="http://www.w3.org/2000/svg">
<path fill-rule="evenodd" clip-rule="evenodd" d="M-3 -49H357.833V266.315H-3V-49ZM-2.4362 -48.4369H41.5403V-4.51805H-2.4362V-48.4369ZM42.6679 -48.4369H86.6445V-4.51805H42.6679V-48.4369ZM131.749 -48.4369H87.7721V-4.51805H131.749V-48.4369ZM132.876 -48.4369H176.853V-4.51805H132.876V-48.4369ZM221.957 -48.4369H177.98V-4.51805H221.957V-48.4369ZM223.084 -48.4369H267.061V-4.51805H223.084V-48.4369ZM312.165 -48.4369H268.189V-4.51805H312.165V-48.4369ZM313.293 -48.4369H357.269V-4.51805H313.293V-48.4369ZM41.5403 -3.39193H-2.4362V40.527H41.5403V-3.39193ZM42.6679 -3.39193H86.6445V40.527H42.6679V-3.39193ZM131.749 -3.39193H87.7721V40.527H131.749V-3.39193ZM132.876 -3.39193H176.853V40.527H132.876V-3.39193ZM221.957 -3.39193H177.98V40.527H221.957V-3.39193ZM223.084 -3.39193H267.061V40.527H223.084V-3.39193ZM312.165 -3.39193H268.189V40.527H312.165V-3.39193ZM313.293 -3.39193H357.269V40.527H313.293V-3.39193ZM41.5403 41.6531H-2.4362V85.572H41.5403V41.6531ZM42.6679 41.6531H86.6445V85.572H42.6679V41.6531ZM131.749 41.6531H87.7721V85.572H131.749V41.6531ZM132.876 41.6531H176.853V85.572H132.876V41.6531ZM221.957 41.6531H177.98V85.572H221.957V41.6531ZM223.084 41.6531H267.061V85.572H223.084V41.6531ZM312.165 41.6531H268.189V85.572H312.165V41.6531ZM313.293 41.6531H357.269V85.572H313.293V41.6531ZM41.5403 86.6981H-2.4362V130.617H41.5403V86.6981ZM42.6679 86.6981H86.6445V130.617H42.6679V86.6981ZM131.749 86.6981H87.7721V130.617H131.749V86.6981ZM132.876 86.6981H176.853V130.617H132.876V86.6981ZM221.957 86.6981H177.98V130.617H221.957V86.6981ZM223.084 86.6981H267.061V130.617H223.084V86.6981ZM312.165 86.6981H268.189V130.617H312.165V86.6981ZM313.293 86.6981H357.269V130.617H313.293V86.6981ZM41.5403 131.743H-2.4362V175.662H41.5403V131.743ZM42.6679 131.743H86.6445V175.662H42.6679V131.743ZM131.749 131.743H87.7721V175.662H131.749V131.743ZM132.876 131.743H176.853V175.662H132.876V131.743ZM221.957 131.743H177.98V175.662H221.957V131.743ZM223.084 131.743H267.061V175.662H223.084V131.743ZM312.165 131.743H268.189V175.662H312.165V131.743ZM313.293 131.743H357.269V175.662H313.293V131.743ZM41.5403 176.788H-2.4362V220.707H41.5403V176.788ZM42.6679 176.788H86.6445V220.707H42.6679V176.788ZM131.749 176.788H87.7721V220.707H131.749V176.788ZM132.876 176.788H176.853V220.707H132.876V176.788ZM221.957 176.788H177.98V220.707H221.957V176.788ZM223.084 176.788H267.061V220.707H223.084V176.788ZM312.165 176.788H268.189V220.707H312.165V176.788ZM313.293 176.788H357.269V220.707H313.293V176.788ZM41.5403 221.833H-2.4362V265.752H41.5403V221.833ZM42.6679 221.833H86.6445V265.752H42.6679V221.833ZM131.749 221.833H87.7721V265.752H131.749V221.833ZM132.876 221.833H176.853V265.752H132.876V221.833ZM221.957 221.833H177.98V265.752H221.957V221.833ZM223.084 221.833H267.061V265.752H223.084V221.833ZM312.165 221.833H268.189V265.752H312.165V221.833ZM313.293 221.833H357.269V265.752H313.293V221.833Z" fill="#C7CAAA"/>
<path fill-rule="evenodd" clip-rule="evenodd" d="M-3 265.901H357.833V581.216H-3V265.901ZM-2.4362 266.464H41.5403V310.383H-2.4362V266.464ZM42.6679 266.464H86.6445V310.383H42.6679V266.464ZM131.749 266.464H87.7721V310.383H131.749V266.464ZM132.876 266.464H176.853V310.383H132.876V266.464ZM221.957 266.464H177.98V310.383H221.957V266.464ZM223.084 266.464H267.061V310.383H223.084V266.464ZM312.165 266.464H268.189V310.383H312.165V266.464ZM313.293 266.464H357.269V310.383H313.293V266.464ZM41.5403 311.509H-2.4362V355.428H41.5403V311.509ZM42.6679 311.509H86.6445V355.428H42.6679V311.509ZM131.749 311.509H87.7721V355.428H131.749V311.509ZM132.876 311.509H176.853V355.428H132.876V311.509ZM221.957 311.509H177.98V355.428H221.957V311.509ZM223.084 311.509H267.061V355.428H223.084V311.509ZM312.165 311.509H268.189V355.428H312.165V311.509ZM313.293 311.509H357.269V355.428H313.293V311.509ZM41.5403 356.554H-2.4362V400.473H41.5403V356.554ZM42.6679 356.554H86.6445V400.473H42.6679V356.554ZM131.749 356.554H87.7721V400.473H131.749V356.554ZM132.876 356.554H176.853V400.473H132.876V356.554ZM221.957 356.554H177.98V400.473H221.957V356.554ZM223.084 356.554H267.061V400.473H223.084V356.554ZM312.165 356.554H268.189V400.473H312.165V356.554ZM313.293 356.554H357.269V400.473H313.293V356.554ZM41.5403 401.599H-2.4362V445.518H41.5403V401.599ZM42.6679 401.599H86.6445V445.518H42.6679V401.599ZM131.749 401.599H87.7721V445.518H131.749V401.599ZM132.876 401.599H176.853V445.518H132.876V401.599ZM221.957 401.599H177.98V445.518H221.957V401.599ZM223.084 401.599H267.061V445.518H223.084V401.599ZM312.165 401.599H268.189V445.518H312.165V401.599ZM313.293 401.599H357.269V445.518H313.293V401.599ZM41.5403 446.644H-2.4362V490.563H41.5403V446.644ZM42.6679 446.644H86.6445V490.563H42.6679V446.644ZM131.749 446.644H87.7721V490.563H131.749V446.644ZM132.876 446.644H176.853V490.563H132.876V446.644ZM221.957 446.644H177.98V490.563H221.957V446.644ZM223.084 446.644H267.061V490.563H223.084V446.644ZM312.165 446.644H268.189V490.563H312.165V446.644ZM313.293 446.644H357.269V490.563H313.293V446.644ZM41.5403 491.689H-2.4362V535.608H41.5403V491.689ZM42.6679 491.689H86.6445V535.608H42.6679V491.689ZM131.749 491.689H87.7721V535.608H131.749V491.689ZM132.876 491.689H176.853V535.608H132.876V491.689ZM221.957 491.689H177.98V535.608H221.957V491.689ZM223.084 491.689H267.061V535.608H223.084V491.689ZM312.165 491.689H268.189V535.608H312.165V491.689ZM313.293 491.689H357.269V535.608H313.293V491.689ZM41.5403 536.734H-2.4362V580.653H41.5403V536.734ZM42.6679 536.734H86.6445V580.653H42.6679V536.734ZM131.749 536.734H87.7721V580.653H131.749V536.734ZM132.876 536.734H176.853V580.653H132.876V536.734ZM221.957 536.734H177.98V580.653H221.957V536.734ZM223.084 536.734H267.061V580.653H223.084V536.734ZM312.165 536.734H268.189V580.653H312.165V536.734ZM313.293 536.734H357.269V580.653H313.293V536.734Z" fill="#C7CAAA"/>
<path fill-rule="evenodd" clip-rule="evenodd" d="M357.419 -49H718.252V266.315H357.419V-49ZM357.983 -48.4369H401.96V-4.51805H357.983V-48.4369ZM403.087 -48.4369H447.064V-4.51805H403.087V-48.4369ZM492.168 -48.4369H448.191V-4.51805H492.168V-48.4369ZM493.295 -48.4369H537.272V-4.51805H493.295V-48.4369ZM582.376 -48.4369H538.4V-4.51805H582.376V-48.4369ZM583.504 -48.4369H627.48V-4.51805H583.504V-48.4369ZM672.584 -48.4369H628.608V-4.51805H672.584V-48.4369ZM673.712 -48.4369H717.688V-4.51805H673.712V-48.4369ZM401.96 -3.39193H357.983V40.527H401.96V-3.39193ZM403.087 -3.39193H447.064V40.527H403.087V-3.39193ZM492.168 -3.39193H448.191V40.527H492.168V-3.39193ZM493.295 -3.39193H537.272V40.527H493.295V-3.39193ZM582.376 -3.39193H538.4V40.527H582.376V-3.39193ZM583.504 -3.39193H627.48V40.527H583.504V-3.39193ZM672.584 -3.39193H628.608V40.527H672.584V-3.39193ZM673.712 -3.39193H717.688V40.527H673.712V-3.39193ZM401.96 41.6531H357.983V85.572H401.96V41.6531ZM403.087 41.6531H447.064V85.572H403.087V41.6531ZM492.168 41.6531H448.191V85.572H492.168V41.6531ZM493.295 41.6531H537.272V85.572H493.295V41.6531ZM582.376 41.6531H538.4V85.572H582.376V41.6531ZM583.504 41.6531H627.48V85.572H583.504V41.6531ZM672.584 41.6531H628.608V85.572H672.584V41.6531ZM673.712 41.6531H717.688V85.572H673.712V41.6531ZM401.96 86.6981H357.983V130.617H401.96V86.6981ZM403.087 86.6981H447.064V130.617H403.087V86.6981ZM492.168 86.6981H448.191V130.617H492.168V86.6981ZM493.295 86.6981H537.272V130.617H493.295V86.6981ZM582.376 86.6981H538.4V130.617H582.376V86.6981ZM583.504 86.6981H627.48V130.617H583.504V86.6981ZM672.584 86.6981H628.608V130.617H672.584V86.6981ZM673.712 86.6981H717.688V130.617H673.712V86.6981ZM401.96 131.743H357.983V175.662H401.96V131.743ZM403.087 131.743H447.064V175.662H403.087V131.743ZM492.168 131.743H448.191V175.662H492.168V131.743ZM493.295 131.743H537.272V175.662H493.295V131.743ZM582.376 131.743H538.4V175.662H582.376V131.743ZM583.504 131.743H627.48V175.662H583.504V131.743ZM672.584 131.743H628.608V175.662H672.584V131.743ZM673.712 131.743H717.688V175.662H673.712V131.743ZM401.96 176.788H357.983V220.707H401.96V176.788ZM403.087 176.788H447.064V220.707H403.087V176.788ZM492.168 176.788H448.191V220.707H492.168V176.788ZM493.295 176.788H537.272V220.707H493.295V176.788ZM582.376 176.788H538.4V220.707H582.376V176.788ZM583.504 176.788H627.48V220.707H583.504V176.788ZM672.584 176.788H628.608V220.707H672.584V176.788ZM673.712 176.788H717.688V220.707H673.712V176.788ZM401.96 221.833H357.983V265.752H401.96V221.833ZM403.087 221.833H447.064V265.752H403.087V221.833ZM492.168 221.833H448.191V265.752H492.168V221.833ZM493.295 221.833H537.272V265.752H493.295V221.833ZM582.376 221.833H538.4V265.752H582.376V221.833ZM583.504 221.833H627.48V265.752H583.504V221.833ZM672.584 221.833H628.608V265.752H672.584V221.833ZM673.712 221.833H717.688V265.752H673.712V221.833Z" fill="#C7CAAA"/>
<path fill-rule="evenodd" clip-rule="evenodd" d="M357.419 265.901H718.252V581.216H357.419V265.901ZM357.983 266.464H401.96V310.383H357.983V266.464ZM403.087 266.464H447.064V310.383H403.087V266.464ZM492.168 266.464H448.191V310.383H492.168V266.464ZM493.295 266.464H537.272V310.383H493.295V266.464ZM582.376 266.464H538.4V310.383H582.376V266.464ZM583.504 266.464H627.48V310.383H583.504V266.464ZM672.584 266.464H628.608V310.383H672.584V266.464ZM673.712 266.464H717.688V310.383H673.712V266.464ZM401.96 311.509H357.983V355.428H401.96V311.509ZM403.087 311.509H447.064V355.428H403.087V311.509ZM492.168 311.509H448.191V355.428H492.168V311.509ZM493.295 311.509H537.272V355.428H493.295V311.509ZM582.376 311.509H538.4V355.428H582.376V311.509ZM583.504 311.509H627.48V355.428H583.504V311.509ZM672.584 311.509H628.608V355.428H672.584V311.509ZM673.712 311.509H717.688V355.428H673.712V311.509ZM401.96 356.554H357.983V400.473H401.96V356.554ZM403.087 356.554H447.064V400.473H403.087V356.554ZM492.168 356.554H448.191V400.473H492.168V356.554ZM493.295 356.554H537.272V400.473H493.295V356.554ZM582.376 356.554H538.4V400.473H582.376V356.554ZM583.504 356.554H627.48V400.473H583.504V356.554ZM672.584 356.554H628.608V400.473H672.584V356.554ZM673.712 356.554H717.688V400.473H673.712V356.554ZM401.96 401.599H357.983V445.518H401.96V401.599ZM403.087 401.599H447.064V445.518H403.087V401.599ZM492.168 401.599H448.191V445.518H492.168V401.599ZM493.295 401.599H537.272V445.518H493.295V401.599ZM582.376 401.599H538.4V445.518H582.376V401.599ZM583.504 401.599H627.48V445.518H583.504V401.599ZM672.584 401.599H628.608V445.518H672.584V401.599ZM673.712 401.599H717.688V445.518H673.712V401.599ZM401.96 446.644H357.983V490.563H401.96V446.644ZM403.087 446.644H447.064V490.563H403.087V446.644ZM492.168 446.644H448.191V490.563H492.168V446.644ZM493.295 446.644H537.272V490.563H493.295V446.644ZM582.376 446.644H538.4V490.563H582.376V446.644ZM583.504 446.644H627.48V490.563H583.504V446.644ZM672.584 446.644H628.608V490.563H672.584V446.644ZM673.712 446.644H717.688V490.563H673.712V446.644ZM401.96 491.689H357.983V535.608H401.96V491.689ZM403.087 491.689H447.064V535.608H403.087V491.689ZM492.168 491.689H448.191V535.608H492.168V491.689ZM493.295 491.689H537.272V535.608H493.295V491.689ZM582.376 491.689H538.4V535.608H582.376V491.689ZM583.504 491.689H627.48V535.608H583.504V491.689ZM672.584 491.689H628.608V535.608H672.584V491.689ZM673.712 491.689H717.688V535.608H673.712V491.689ZM401.96 536.734H357.983V580.653H401.96V536.734ZM403.087 536.734H447.064V580.653H403.087V536.734ZM492.168 536.734H448.191V580.653H492.168V536.734ZM493.295 536.734H537.272V580.653H493.295V536.734ZM582.376 536.734H538.4V580.653H582.376V536.734ZM583.504 536.734H627.48V580.653H583.504V536.734ZM672.584 536.734H628.608V580.653H672.584V536.734ZM673.712 536.734H717.688V580.653H673.712V536.734Z" fill="#C7CAAA"/>
</svg>
